# xmcd CD database file
#
# Track frame offsets:
#	180
#	20738
#	38211
#	52191
#	75684
#	106801
#	121155
#	135630
#	152349
#	165391
#
# Disc length: 2415 seconds
#
# Revision: 0
# Processed by: cddbd v1.5.1PL2 Copyright (c) Steve Scherf et al.
# Submitted via: Feurio! 1.68 - http://www.feurio.com
#
DISCID=75096d0a
DTITLE=Pass Over Blues - Better Day
DYEAR=1996
DGENRE=Deutscher Blues
TTITLE0=Train - Honky Tonk Train
TTITLE1=Warnung
TTITLE2=Better Day
TTITLE3=Telefon Blues
TTITLE4=Rambling On My Mind
TTITLE5=Ask Me No Question
TTITLE6=Let Me Go Home Whiskey
TTITLE7=Black, Brown and White
TTITLE8=Checkin' Up On My Baby
TTITLE9=Blues For Clarence "Pinetop" Smith
EXTD=
EXTT0=
EXTT1=
EXTT2=
EXTT3=
EXTT4=
EXTT5=
EXTT6=
EXTT7=
EXTT8=
EXTT9=
PLAYORDER=
